<?xml version="1.0" encoding="UTF-8" standalone="no"?>
<svg
   version="1.0"
   width="297.86996pt"
   height="420.87579pt"
   viewBox="0 0 297.86996 420.87579"
   preserveAspectRatio="xMidYMid"
   id="svg11"
   xmlns="http://www.w3.org/2000/svg"
   xmlns:svg="http://www.w3.org/2000/svg">
  <defs
     id="defs11" />
  <g
     transform="matrix(0.1,0,0,-0.1,-365.13002,723.99999)"
     fill="currentColor"
     stroke="none"
     id="g11">
    <path
       d="m 5010,7220 c -14,-14 -20,-33 -20,-68 v -48 h 150 l 150,-1 v 53 c 0,76 -15,84 -152,84 -95,0 -110,-2 -128,-20 z"
       id="path1" />
    <path
       d="m 4955,6996 c -219,-42 -438,-180 -561,-351 -80,-113 -145,-279 -155,-400 l -4,-40 907,-3 908,-2 -6,47 c -42,346 -303,639 -653,734 -98,27 -333,35 -436,15 z m 227,-150 c 14,-20 9,-491 -4,-504 -17,-17 -48,-15 -70,5 -16,15 -18,36 -18,250 0,222 1,234 21,254 21,21 56,19 71,-5 z m -354,-12 c 12,-8 22,-23 22,-33 0,-10 -25,-50 -55,-90 -68,-90 -110,-176 -131,-272 -9,-41 -18,-79 -20,-86 -6,-22 -53,-27 -74,-8 -23,21 -20,61 11,164 36,116 137,287 191,326 28,19 28,19 56,-1 z m 712,-31 c 87,-99 148,-225 177,-361 15,-73 14,-75 -6,-95 -17,-17 -26,-19 -48,-11 -23,8 -28,17 -39,74 -21,114 -66,209 -150,317 -48,62 -52,77 -27,105 26,29 48,22 93,-29 z"
       id="path2" />
    <path
       d="m 4068,6084 c -38,-20 -58,-63 -58,-125 0,-63 26,-110 74,-133 31,-15 133,-16 1076,-14 l 1042,3 33,37 c 62,67 54,179 -15,226 l -33,22 H 5141 c -906,-1 -1050,-3 -1073,-16 z"
       id="path3" />
    <path
       d="M 4240,4605 V 3500 h 845 c 465,0 845,2 845,4 0,2 -63,66 -140,142 -153,151 -178,190 -166,264 8,51 -3,51 -78,6 -31,-19 -100,-48 -154,-66 -284,-94 -605,-19 -820,190 -331,322 -343,821 -29,1157 109,116 230,188 394,235 110,31 296,32 405,0 207,-59 368,-174 486,-348 158,-234 180,-543 57,-803 -19,-40 -35,-76 -35,-80 0,-3 28,-6 63,-7 38,0 74,-7 95,-17 l 32,-18 v 776 775 h -900 -900 z"
       id="path4" />
    <path
       d="m 4994,5346 c -310,-71 -536,-315 -574,-622 -47,-377 213,-735 584,-803 190,-35 380,5 548,116 l 69,45 53,-48 54,-49 -6,-66 -5,-67 288,-283 c 158,-156 297,-289 308,-296 86,-48 240,39 254,145 11,80 -1,94 -300,387 -305,299 -320,310 -394,287 -37,-11 -38,-11 -93,44 l -55,55 23,37 c 39,63 82,160 99,225 26,96 23,281 -6,377 -72,236 -246,415 -483,495 -101,34 -264,43 -364,21 z m 292,-177 c 87,-27 138,-52 192,-97 170,-137 247,-334 212,-539 -43,-256 -281,-452 -550,-453 -313,-1 -577,277 -557,585 14,230 160,420 381,496 104,37 220,40 322,8 z"
       id="path5" />
    <path
       d="m 5117,5075 c -35,-35 -12,-72 51,-81 122,-18 230,-91 292,-199 17,-30 36,-57 41,-61 18,-11 57,5 64,26 15,47 -80,187 -168,245 -97,64 -248,102 -280,70 z"
       id="path6" />
    <path
       d="m 3973,5221 c -79,-36 -78,-29 -81,-431 -3,-397 -2,-401 67,-447 28,-19 48,-23 107,-23 h 74 v 460 460 h -62 c -40,0 -78,-7 -105,-19 z"
       id="path7" />
    <path
       d="m 6140,4774 v -467 l 74,6 c 86,6 130,26 151,67 23,44 22,747 -1,791 -21,42 -83,69 -161,69 h -63 z"
       id="path8" />
    <path
       d="m 3700,5007 c -46,-23 -51,-48 -48,-240 l 3,-179 28,-24 c 21,-18 40,-24 73,-24 h 44 v 240 240 h -37 c -21,0 -49,-6 -63,-13 z"
       id="path9" />
    <path
       d="m 6480,4780 v -240 h 40 c 51,0 85,16 99,47 7,14 11,92 11,199 v 176 l -29,29 c -24,24 -38,29 -75,29 h -46 z"
       id="path10" />
    <path
       d="m 4062,3380 c -45,-27 -62,-74 -62,-166 0,-86 17,-133 58,-161 26,-17 83,-18 1072,-21 980,-2 1047,-1 1079,15 41,21 67,56 76,99 6,29 3,34 -37,57 -24,14 -81,64 -128,111 l -85,86 h -970 c -955,0 -971,0 -1003,-20 z"
       id="path11" />
  </g>
</svg>
